#!OML:ASF F:\VICON\USERDATA\INSTALL\rory3\rory3.ASF
:FULLY-SPECIFIED
:DEGREES
10
root 0.37414000000000003 18.7123 -12.406100000000013 2.4930799999999964 4.906749999999992 -3.236009999999999
lfemur -26.893900000000002 -4.652690000000007 -19.4496
ltibia 19.499700000000054
lfoot 8.53417 -10.8016
ltoes -17.538199999999993
rfemur 7.4596599999999675 6.542309999999993 32.5147
rtibia 67.58360000000002
rfoot 23.431900000000006 -13.570699999999992
rtoes 16.717699999999986
lowerback nan 1.7019399999999996 4.782069999999999
upperback -1.2952699999999988 3.2323600000000035 1.2629199999999998
thorax -9.37741 1.3418500000000009 -2.057219999999997
lowerneck -19.2078 -6.043879999999998 -2.3625100000000003
upperneck 9.93338 -8.161779999999997 4.4096
head 6.412880000000001 -3.657840000000003 0.8943130000000008
lclavicle -1.9530599999999964e-14 -1.6697900000000022e-14
lhumerus -65.83670000000001 -5.11881 86.49990000000001
lradius 110.311
lwrist 29.6331
lhand -22.3804 4.378989999999998
lfingers nan
lthumb 4.041400000000001 34.3204
rclavicle -1.9530599999999964e-14 -1.6697900000000022e-14
rhumerus -42.026199999999996 18.374300000000012 -97.3286
rradius 120.94599999999998
rwrist -21.8959
rhand -17.5179 nan
rfingers nan
rthumb 8.735580000000002 11.545199999999996
11
root 0.3644429999999999 18.604 -11.919899999999977 2.1566599999999974 5.490050000000011 -2.7915200000000002
lfemur -26.704799999999995 -4.797830000000001 -20.2147
ltibia 20.85839999999994
lfoot 7.990930000000002 -12.0023
ltoes -16.441799999999997
rfemur 5.801299999999998 5.604069999999995 31.806800000000006
rtibia 72.0861
rfoot 23.712299999999956 -14.216799999999994
rtoes 18.58520000000002
lowerback nan 1.6179600000000012 4.168970000000001
upperback -1.00948 3.0001499999999988 1.1605399999999997
thorax -9.20022 1.2669499999999996 -1.7739700000000003
lowerneck -19.2168 -6.057520000000003 -2.4510700000000005
upperneck 9.41753 -8.161110000000003 4.61669
head 6.26121 -3.652309999999999 0.9811989999999997
lclavicle -1.461070000000003e-14 -1.2324600000000006e-14
lhumerus -64.55769999999997 -5.642889999999999 86.72199999999998
lradius 110.024
lwrist 29.5081
lhand -22.592799999999997 4.226679999999999
lfingers nan
lthumb 3.8363799999999966 34.1719
rclavicle -1.461070000000003e-14 -1.2324600000000006e-14
rhumerus -41.89720000000001 17.743599999999997 -97.3762
rradius 119.69100000000002
rwrist -22.9244
rhand -16.303799999999995 nan
rfingers nan
rthumb 9.90707 12.167100000000005
12
root 0.3641450000000005 18.4818 -11.435099999999967 1.6896299999999984 6.038649999999988 -2.63062
lfemur -26.168499999999995 -5.032760000000003 -20.6006
ltibia 22.846599999999963
lfoot 6.46303 -13.228699999999993
ltoes -14.2928
rfemur 4.228309999999983 4.343770000000003 31.068800000000003
rtibia 76.39360000000002
rfoot 23.01959999999997 -14.562200000000004
rtoes 19.161
lowerback nan 1.530649999999998 3.993770000000001
upperback 0.40788300000000055 2.7164499999999983 1.1680200000000005
thorax -6.806780000000005 1.2163300000000006 -1.5236900000000022
lowerneck -19.5564 -6.127629999999998 -2.62528
upperneck 8.26978 -8.190479999999997 4.95435
head 5.97008 -3.6594499999999988 1.1199500000000004
lclavicle 2.32081e-14 2.385420000000008e-15
lhumerus -61.382999999999974 -6.002779999999999 86.8865
lradius 109.46899999999998
lwrist 29.3789
lhand -22.937199999999997 4.405889999999999
lfingers nan
lthumb 3.503730000000001 34.3568
rclavicle 2.32081e-14 2.385420000000008e-15
rhumerus -40.0794 17.399300000000004 -96.8772
rradius 117.99400000000001
rwrist -23.1833
rhand -16.988100000000003 nan
rfingers nan
rthumb 9.246800000000002 10.882199999999997
13
root 0.3709170000000001 18.3428 -10.95330000000001 1.1923899999999938 6.653490000000014 -2.6333
lfemur -26.084100000000014 -5.327799999999991 -20.7875
ltibia 25.66529999999998
lfoot 3.979620000000001 -15.1157
ltoes -7.73042999999999
rfemur 2.7255000000000393 2.78122 30.295300000000005
rtibia 80.49749999999997
rfoot 21.679499999999983 -14.121999999999991
rtoes 17.901800000000016
lowerback nan 1.1623700000000006 4.06312
upperback -0.660886 2.3960100000000017 1.0359400000000005
thorax -9.33284 0.9786619999999999 -1.7381799999999987
lowerneck -19.0933 -6.0383599999999955 -2.69109
upperneck 9.312779999999998 -8.128150000000005 5.00072
head 6.234759999999999 -3.61702 1.1485200000000004
lclavicle -2.8625000000000023e-14 -1.1330699999999976e-14
lhumerus -62.097800000000014 -6.368120000000002 86.9255
lradius 109.446
lwrist 29.247699999999995
lhand -23.171999999999997 4.26533
lfingers nan
lthumb 3.2769500000000025 34.2199
rclavicle -2.8625000000000023e-14 -1.1330699999999976e-14
rhumerus -42.52430000000001 16.604799999999994 -98.1889
rradius 116.695
rwrist -22.9497
rhand -17.7331 nan
rfingers nan
rthumb 8.52792 10.0116
14
root 0.38036299999999984 18.2156 -10.465600000000013 0.6469399999999981 7.244239999999996 -2.45776
lfemur -26.04260000000002 -5.825720000000009 -21.0841
ltibia 29.13559999999998
lfoot 0.374054000000009 -16.06589999999999
ltoes -2.5552099999999918
rfemur 1.3209599999999853 1.2452000000000027 29.2628
rtibia 84.36220000000002
rfoot 21.781000000000013 -14.206999999999992
rtoes 22.33870000000003
lowerback nan 0.895816 4.0209100000000015
upperback -0.47336600000000045 2.0462100000000003 0.8796339999999994
thorax -9.50733 0.8063519999999998 -1.8183399999999994
lowerneck -19.3397 -5.969589999999998 -2.4428300000000003
upperneck 9.25097 -8.070219999999997 4.86421
head 6.2358400000000005 -3.587920000000002 1.0682300000000005
lclavicle -1.2423999999999989e-14 5.565970000000012e-15
lhumerus -60.771999999999984 -6.69324 86.9256
lradius 109.288
lwrist 28.953699999999998
lhand -22.710700000000003 4.072990000000001
lfingers nan
lthumb 3.722459999999999 34.0202
rclavicle -1.2423999999999989e-14 5.565970000000012e-15
rhumerus -42.799200000000006 15.843099999999993 -98.6049
rradius 115.154
rwrist -23.2887
rhand -17.378299999999996 nan
rfingers nan
rthumb 8.87031 9.63036
15
root 0.38879999999999987 18.0731 -9.986940000000033 0.281648000000005 7.858079999999996 -2.39505
lfemur -25.857600000000016 -6.483130000000006 -21.2386
ltibia 32.43360000000001
lfoot -3.66603000000001 -15.649500000000007
ltoes -1.4854399999999721
rfemur -0.40512399999999715 -0.37174999999999425 28.2718
rtibia 88.08690000000004
rfoot 21.913299999999964 -14.359300000000008
rtoes 26.17500000000002
lowerback nan 0.6263700000000003 4.026370000000002
upperback -0.3139220000000008 1.6991100000000001 0.8038009999999994
thorax -9.588930000000001 0.638022 -1.829339999999996
lowerneck -19.7771 -5.879449999999998 -2.144099999999999
upperneck 9.33852 -7.9790099999999935 4.56734
head 6.30498 -3.5485499999999988 0.9264120000000007
lclavicle -5.1435500000000045e-15 -4.174480000000002e-15
lhumerus -59.255200000000016 -6.98522 87.0427
lradius 109.217
lwrist 28.8628
lhand -23.430399999999995 4.646569999999998
lfingers nan
lthumb 3.027479999999997 34.6048
rclavicle -5.1435500000000045e-15 -4.174480000000002e-15
rhumerus -43.00149999999999 14.8844 -98.7787
rradius 113.628
rwrist -24.428500000000003
rhand -16.245399999999997 nan
rfingers nan
rthumb 9.963370000000001 9.77035
16
root 0.3933910000000002 17.9138 -9.522210000000005 0.08103559999999987 7.867389999999979 -2.42204
lfemur -25.626399999999986 -6.5104600000000055 -21.4182
ltibia 35.84039999999999
lfoot -7.229449999999991 -14.206999999999994
ltoes -0.8592130000000306
rfemur -2.4502700000000086 -1.3892100000000016 27.3825
rtibia 91.77989999999997
rfoot 22.018600000000013 -13.990200000000002
rtoes 28.622899999999966
lowerback nan 0.538611 3.883679999999996
upperback -0.30950000000000066 1.5758700000000003 0.8334400000000005
thorax -9.800410000000001 0.582082 -1.6939599999999977
lowerneck -19.6323 -5.784179999999997 -2.2860799999999997
upperneck 9.38315 -7.823849999999997 4.59948
head 6.298189999999999 -3.4781599999999973 0.9794810000000009
lclavicle 3.7520600000000005e-15 -1.6101600000000017e-14
lhumerus -57.84549999999999 -6.9394 87.2157
lradius 109.236
lwrist 28.869400000000002
lhand -24.7059 5.240629999999999
lfingers nan
lthumb 1.7955900000000005 35.2128
rclavicle 3.7520600000000005e-15 -1.6101600000000017e-14
rhumerus -43.627099999999984 13.962700000000002 -99.0868
rradius 112.036
rwrist -25.233199999999993
rhand -15.316599999999998 nan
rfingers nan
rthumb 10.859400000000006 9.57754
17
root 0.399142 17.8091 -9.045450000000042 -0.0840374000000077 7.364450000000016 -2.36513
lfemur -24.973699999999994 -6.331229999999994 -21.693099999999998
ltibia 38.82640000000002
lfoot -11.150300000000017 -12.0624
ltoes -5.489439999999986
rfemur -4.662280000000004 -1.9297499999999927 26.371499999999997
rtibia 95.06149999999994
rfoot 21.842099999999977 -12.741400000000006
rtoes 27.60899999999998
lowerback nan 0.631381 3.548500000000002
upperback -0.2945669999999999 1.6480200000000007 0.8146
thorax -10.0171 0.627742 -1.55086
lowerneck -19.2905 -5.627429999999999 -2.46251
upperneck 9.19257 -7.603469999999994 4.86536
head 6.1935199999999995 -3.365420000000001 1.1271699999999998
lclavicle 2.882379999999997e-14 -1.987850000000023e-16
lhumerus -56.207899999999995 -6.80424 87.29
lradius 109.244
lwrist 28.929200000000005
lhand -25.1927 5.242909999999998
lfingers nan
lthumb 1.3254999999999995 35.2185
rclavicle 2.882379999999997e-14 -1.987850000000023e-16
rhumerus -43.60369999999999 13.655699999999996 -99.3236
rradius 109.61
rwrist -26.0909
rhand -15.780700000000007 nan
rfingers nan
rthumb 10.411699999999998 8.402350000000004
18
root 0.40385000000000026 17.6545 -8.589549999999978 -0.04897440000000586 6.944160000000005 -2.0387199999999996
lfemur -24.6019 -6.560750000000002 -22.189399999999996
ltibia 41.412499999999994
lfoot -13.55909999999999 -9.710200000000002
ltoes 0.47123899999999175
rfemur -7.557310000000005 -2.6286500000000133 25.0826
rtibia 98.50720000000007
rfoot 21.02040000000003 -11.412800000000011
rtoes 15.941799999999988
lowerback nan 0.711947 2.9641999999999995
upperback -0.1115190000000007 1.6243099999999997 0.7020129999999993
thorax -9.907009999999998 0.646411 -1.3372199999999976
lowerneck -19.6481 -5.492869999999998 -2.27637
upperneck 9.129059999999999 -7.463099999999998 4.88252
head 6.219360000000001 -3.2839399999999985 1.1126199999999997
lclavicle 4.522349999999994e-15 -1.948089999999997e-14
lhumerus -54.0548 -6.489270000000001 87.275
lradius 109.373
lwrist 28.949799999999996
lhand -24.6987 5.288959999999999
lfingers nan
lthumb 1.8026100000000003 35.2611
rclavicle 4.522349999999994e-15 -1.948089999999997e-14
rhumerus -43.327999999999996 12.9318 -99.5008
rradius 107.4
rwrist -26.8013
rhand -16.735099999999996 nan
rfingers nan
rthumb 9.490970000000003 6.583850000000002
